<?xml version="1.0" encoding="utf-8"?>
<svg version="1.1" xmlns="http://www.w3.org/2000/svg" width="457" height="142" viewBox="52.921 -88.968 345.563 124.699" xmlns:bx="https://boxy-svg.com" preserveAspectRatio="none"><defs><bx:export><bx:file format="svg"/></bx:export><clipPath id="clip0"><rect x="154" y="147" width="109" height="107"/></clipPath><clipPath id="clip-1"><rect x="154" y="147" width="109" height="107"/></clipPath><clipPath id="clip-2"><rect x="154" y="147" width="109" height="107"/></clipPath><style bx:fonts="Black Ops One">@import url(https://fonts.googleapis.com/css2?family=Black+Ops+One%3Aital%2Cwght%400%2C400&amp;display=swap);</style><style bx:fonts="Akronim">@import url(https://fonts.googleapis.com/css2?family=Akronim%3Aital%2Cwght%400%2C400&amp;display=swap);</style></defs><g clip-path="url(#clip0)" transform="matrix(0.506943, 0.072407, 0.078704, 0.451842, -120.614342, -257.314819)" style="transform-origin: 217.769px 202.768px;"><path d="M154.895 248.922 160.668 148.321 261.355 152.328 255.582 252.929Z" stroke-miterlimit="8" fill-rule="evenodd" style="paint-order: stroke; fill: none; stroke-width: 13.7358px; stroke: rgb(6, 187, 204);"/></g><g clip-path="url(#clip-1)" transform="matrix(0.506943, 0.072407, 0.078704, 0.451842, -107.270166, -245.775394)" style="transform-origin: 217.769px 202.768px;"><path d="M154.895 248.922 160.668 148.321 261.355 152.328 255.582 252.929Z" stroke-miterlimit="8" fill-rule="evenodd" style="paint-order: stroke; fill: none; stroke-width: 13.7358px; stroke: rgb(6, 187, 204);"/></g><g clip-path="url(#clip-2)" transform="matrix(0.506943, 0.072407, 0.078704, 0.451842, -94.337015, -234.111667)" style="transform-origin: 217.769px 202.768px;"><path d="M154.895 248.922 160.668 148.321 261.355 152.328 255.582 252.929Z" stroke-miterlimit="8" fill-rule="evenodd" style="paint-order: stroke; fill: none; stroke-width: 13.7358px; stroke: rgb(6, 187, 204);"/></g><text style="fill: rgb(51, 51, 51); font-family: &quot;Black Ops One&quot;; font-size: 48px; letter-spacing: -2.3px; paint-order: fill markers; stroke: rgb(73, 218, 205); stroke-dashoffset: -2px; stroke-width: 1.32827px; white-space: pre;" transform="matrix(0.691289, 0, 0, 0.814433, -11.659393, -50.934056)" x="232.963" y="-9.631">Documents</text><text style="fill: rgb(51, 51, 51); font-family: Akronim; font-size: 27px; font-style: italic; letter-spacing: 0.2px; stroke: rgb(6, 187, 204); stroke-linejoin: round; stroke-opacity: 0.35; stroke-width: 1.12654px; word-spacing: -1.1px; white-space: pre; text-decoration: underline solid rgba(255, 255, 255, 0.9);" transform="matrix(1.216401, 0, 0, 1.054992, -255.62801, -41.074681)" x="260.289" y="63.233">Making you happy again</text><text style="white-space: pre; fill: rgb(51, 51, 51); font-family: Arial, sans-serif; font-size: 28px;" x="363.689" y="161.276"> </text><text style="fill: rgb(20, 23, 51); font-family: &quot;Black Ops One&quot;; font-size: 63.2609px; letter-spacing: 4.5px; paint-order: stroke; stroke: rgb(96, 142, 218); stroke-linecap: round; stroke-width: 3.05565px; text-transform: uppercase; white-space: pre;" transform="matrix(0.59771, 0, 0, 0.71134, -2.445317, -54.876618)" x="277.587" y="57.414">Finder</text></svg>